<svg xmlns="http://www.w3.org/2000/svg" viewBox="0 0 1280 640">
  <defs>
    <pattern id="grid" width="40" height="40" patternUnits="userSpaceOnUse">
      <path d="M40 0H0v40" fill="none" stroke="#dfe5ed" stroke-width="1"/>
    </pattern>
    <linearGradient id="panel" x1="80" y1="80" x2="432" y2="560" gradientUnits="userSpaceOnUse">
      <stop offset="0" stop-color="#17243a"/>
      <stop offset="1" stop-color="#223b65"/>
    </linearGradient>
  </defs>
  <rect width="1280" height="640" fill="#eef2f6"/>
  <rect x="80" y="80" width="1120" height="480" rx="22" fill="#ffffff"/>
  <rect x="80" y="80" width="1120" height="480" rx="22" fill="url(#grid)" opacity="0.42"/>
  <rect x="80" y="80" width="354" height="480" rx="22" fill="url(#panel)"/>
  <path d="M434 80v480" stroke="#d9dee8" stroke-width="2"/>
  <text x="488" y="146" fill="#667085" font-family="Inter, Arial, sans-serif" font-size="22">Moonweave Systems</text>
  <g transform="translate(92 146) scale(.68)">
    <circle cx="256" cy="256" r="174" fill="#f7f9fc" stroke="#cfd6e2" stroke-width="16"/>
    <circle cx="256" cy="256" r="108" fill="#ffffff" stroke="#111827" stroke-width="24"/>
    <path d="M256 158v98l-82 84M256 256l84 84M256 256h124" fill="none" stroke="#111827" stroke-width="22" stroke-linecap="round" stroke-linejoin="round"/>
    <circle cx="256" cy="158" r="24" fill="#2f5f9f"/>
    <circle cx="174" cy="340" r="24" fill="#ffffff" stroke="#2f5f9f" stroke-width="10"/>
    <circle cx="340" cy="340" r="24" fill="#ffffff" stroke="#2f5f9f" stroke-width="10"/>
    <circle cx="380" cy="256" r="22" fill="#ffffff" stroke="#2f6f5f" stroke-width="10"/>
  </g>
  <text x="488" y="280" fill="#111827" font-family="Inter, Arial, sans-serif" font-size="78" font-weight="760">Decision Kernel</text>
  <text x="492" y="348" fill="#4b5563" font-family="Inter, Arial, sans-serif" font-size="32">Evidence-gated decisions for coding agents</text>
  <text x="492" y="414" fill="#2f5f9f" font-family="Inter, Arial, sans-serif" font-size="25">decide / anneal / compass / done-gate</text>
  <path d="M492 468h386" stroke="#cfd6e2" stroke-width="3"/>
</svg>
